
<svg xmlns="http://www.w3.org/2000/svg" xmlns:xlink="http://www.w3.org/1999/xlink" viewBox="0 0 40 32" width="40" height="32" preserveAspectRatio="xMidYMid meet" style="width: 100%; height: 100%; transform: translate3d(0px, 0px, 0px); content-visibility: visible;"><defs><clipPath id="__lottie_element_29"><rect width="40" height="32" x="0" y="0"></rect></clipPath></defs><g clip-path="url(#__lottie_element_29)"><g transform="matrix(1,0,0,1,174.5,38.5)" opacity="0.03221649999999968" style="display: none;"><g opacity="1" transform="matrix(1,0,0,1,0,0)"><path stroke-linecap="round" stroke-linejoin="round" fill-opacity="0" stroke="rgb(0,0,0)" stroke-opacity="1" stroke-width="4" d=" M-170.02000427246094,-12.800000190734863 C-170.02000427246094,-12.800000190734863 -169.17100524902344,-12.800000190734863 -167.74899291992188,-12.800000190734863"></path></g></g><g transform="matrix(0.7071067690849304,0.7071067690849304,-0.7071067690849304,0.7071067690849304,113.26655578613281,140.73062133789062)" opacity="1" style="display: block;"><g opacity="1" transform="matrix(1,0,0,1,0,0)"><path stroke-linecap="round" stroke-linejoin="round" fill-opacity="0" stroke="rgb(0,0,0)" stroke-opacity="1" stroke-width="4" d=" M-170.02000427246094,-22.799999237060547 C-170.02000427246094,-22.799999237060547 -138.02000427246094,-22.799999237060547 -138.02000427246094,-22.799999237060547"></path></g></g><g transform="matrix(0.7071067690849304,-0.7071067690849304,0.7071067690849304,0.7071067690849304,145.5106201171875,-77.08655548095703)" opacity="1" style="display: block;"><g opacity="1" transform="matrix(1,0,0,1,0,0)"><path stroke-linecap="round" stroke-linejoin="round" fill-opacity="0" stroke="rgb(0,0,0)" stroke-opacity="1" stroke-width="4" d=" M-170.02000427246094,-22.799999237060547 C-170.02000427246094,-22.799999237060547 -138.02000427246094,-22.799999237060547 -138.02000427246094,-22.799999237060547"></path></g></g><g transform="matrix(1,0,0,1,174.5,38.5)" opacity="0.03221649999999968" style="display: none;"><g opacity="1" transform="matrix(1,0,0,1,0,0)"><path stroke-linecap="round" stroke-linejoin="round" fill-opacity="0" stroke="rgb(0,0,0)" stroke-opacity="1" stroke-width="4" d=" M-140.29100036621094,-32.79999923706055 C-138.86900329589844,-32.79999923706055 -138.02000427246094,-32.79999923706055 -138.02000427246094,-32.79999923706055"></path></g></g></g></svg>
